<?xml version="1.0" encoding="UTF-8" standalone="no"?>
<!-- Created with Inkscape (http://www.inkscape.org/) -->

<svg
   width="1024"
   height="1024"
   viewBox="0 0 1024 1024"
   version="1.1"
   id="svg5"
   inkscape:version="1.1.1 (3bf5ae0d25, 2021-09-20)"
   sodipodi:docname="vocabulum_logo.svg"
   inkscape:export-filename="C:\Users\jupit\OneDrive\Desktop\vocabulum_logo.png"
   inkscape:export-xdpi="288"
   inkscape:export-ydpi="288"
   xmlns:inkscape="http://www.inkscape.org/namespaces/inkscape"
   xmlns:sodipodi="http://sodipodi.sourceforge.net/DTD/sodipodi-0.dtd"
   xmlns="http://www.w3.org/2000/svg"
   xmlns:svg="http://www.w3.org/2000/svg">
  <sodipodi:namedview
     id="namedview7"
     pagecolor="#ffffff"
     bordercolor="#666666"
     borderopacity="1.0"
     inkscape:pageshadow="2"
     inkscape:pageopacity="0"
     inkscape:pagecheckerboard="0"
     inkscape:document-units="px"
     showgrid="false"
     width="1024px"
     inkscape:object-paths="true"
     inkscape:snap-intersection-paths="true"
     inkscape:snap-smooth-nodes="true"
     inkscape:snap-midpoints="true"
     inkscape:snap-center="true"
     inkscape:zoom="0.73541867"
     inkscape:cx="545.94752"
     inkscape:cy="458.92226"
     inkscape:window-width="2560"
     inkscape:window-height="1369"
     inkscape:window-x="-8"
     inkscape:window-y="-8"
     inkscape:window-maximized="1"
     inkscape:current-layer="layer1" />
  <defs
     id="defs2" />
  <g
     inkscape:label="Layer 1"
     inkscape:groupmode="layer"
     id="layer1">
    <circle
       style="opacity:1;fill:#ffffff;fill-opacity:1;stroke-width:3.17903"
       id="path33162"
       cx="512"
       cy="512"
       r="512" />
    <path
       id="rect3822"
       style="fill:#f14321"
       d="m 252.8317,1153.7787 c 38.3524,0.021 69.21123,30.9137 69.19019,69.2661 l -0.35859,653.8215 c -0.021,38.3524 -30.91372,69.2112 -69.26613,69.1902 -38.35239,-0.021 -69.21122,-30.9138 -69.19019,-69.2662 l 0.35859,-653.8215 c 0.021,-38.3524 30.91374,-69.2111 69.26613,-69.1901 z"
       inkscape:transform-center-x="-0.17928486"
       inkscape:transform-center-y="-326.91065" />
    <rect
       style="fill:#16708d;fill-opacity:1"
       id="rect846"
       width="316.33426"
       height="169.22441"
       x="-625.93805"
       y="46.152111" />
    <rect
       style="fill:#f14321;fill-opacity:1"
       id="rect928"
       width="316.33426"
       height="169.22441"
       x="-625.93805"
       y="245.18311" />
    <rect
       style="fill:#f14321;fill-opacity:1"
       id="rect2978"
       width="201.91551"
       height="792.27783"
       x="-901.88922"
       y="677.85913"
       ry="100.95776" />
    <text
       xml:space="preserve"
       style="font-style:normal;font-variant:normal;font-weight:normal;font-stretch:normal;font-size:919.401px;line-height:1.25;font-family:'Microsoft Sans Serif';-inkscape-font-specification:'Microsoft Sans Serif, Normal';font-variant-ligatures:normal;font-variant-caps:normal;font-variant-numeric:normal;font-variant-east-asian:normal;fill:#000000;fill-opacity:1;stroke:none;stroke-width:22.985"
       x="-573.25281"
       y="1640.1168"
       id="text3164"
       transform="rotate(20.4744)"><tspan
         sodipodi:role="line"
         id="tspan3162"
         x="-573.25281"
         y="1640.1168"
         style="font-style:normal;font-variant:normal;font-weight:normal;font-stretch:normal;font-size:919.401px;font-family:'Microsoft Sans Serif';-inkscape-font-specification:'Microsoft Sans Serif, Normal';font-variant-ligatures:normal;font-variant-caps:normal;font-variant-numeric:normal;font-variant-east-asian:normal;stroke-width:22.985">V</tspan></text>
    <rect
       style="opacity:0.398374;fill:#ff00ff;fill-opacity:1;stroke-width:0.733044"
       id="rect4293"
       width="67.286606"
       height="69.228294"
       x="115.92036"
       y="1876.8282" />
    <rect
       style="opacity:0.398374;fill:#ff00ff;fill-opacity:1"
       id="rect4295"
       width="74.369606"
       height="123.05293"
       x="321.6633"
       y="1876.8282" />
    <rect
       style="opacity:0.398374;fill:#ff00ff;fill-opacity:1;stroke-width:2.60388"
       id="rect4297"
       width="92.092018"
       height="129.85185"
       x="160.34312"
       y="1876.8282" />
    <path
       id="path4694"
       style="fill:#16708d;fill-opacity:1"
       d="m 262.63336,-985.72359 c 35.99933,-13.22708 75.62925,5.10586 88.85629,41.1052 l 225.49114,613.70715 c 13.22707,35.99932 -5.10589,75.62922 -41.10522,88.85629 -35.99932,13.22708 -75.62927,-5.10595 -88.85631,-41.10529 L 221.52811,-896.86739 c -13.22708,-35.99932 5.10594,-75.62912 41.10525,-88.8562 z"
       inkscape:transform-center-x="112.74555"
       inkscape:transform-center-y="-306.85347" />
    <path
       id="path4776"
       style="fill:#f78772;fill-opacity:1"
       d="m 761.36664,-985.72359 c -35.99933,-13.22708 -75.62925,5.10586 -88.85629,41.1052 l -225.49113,613.70715 c -13.22707,35.99932 5.10589,75.62922 41.10522,88.85629 35.99931,13.22708 75.62926,-5.10595 88.8563,-41.10529 l 225.49115,-613.70715 c 13.22708,-35.99932 -5.10594,-75.62912 -41.10525,-88.8562 z"
       inkscape:transform-center-x="-112.74555"
       inkscape:transform-center-y="-306.85347" />
    <path
       id="path4858"
       style="fill:#f14321"
       inkscape:transform-center-x="112.74555"
       inkscape:transform-center-y="-306.85347"
       d="m 512,-507.76596 -64.9825,176.85547 c -5.6796,15.45794 -5.5049,31.57323 -0.6465,45.99219 l 0.6465,1.75976 c 0.8255,2.24663 1.7555,4.42365 2.7793,6.5293 0.01,0.014 0.015,0.027 0.022,0.041 0.9701,1.99171 2.037,3.91001 3.1719,5.76953 0.2373,0.38665 0.4991,0.75854 0.7442,1.14063 0.9306,1.45919 1.8991,2.88268 2.9257,4.25391 0.4808,0.63907 0.9945,1.25392 1.4981,1.87695 0.856,1.06359 1.7247,2.11444 2.6367,3.11914 0.7323,0.80336 1.505,1.57332 2.2773,2.34375 0.7599,0.76097 1.5187,1.52207 2.3106,2.24414 1.0061,0.91358 2.0579,1.78319 3.123,2.64062 0.6275,0.50734 1.2469,1.02558 1.8907,1.50977 1.3669,1.02307 2.7859,1.99024 4.2402,2.91797 0.3837,0.24612 0.7581,0.50772 1.1465,0.74609 1.8595,1.1349 3.7778,2.20181 5.7695,3.17188 0.014,0.007 0.027,0.0147 0.041,0.0215 2.1056,1.02383 4.2827,1.95188 6.5293,2.77735 7.8927,2.89997 15.9517,4.20058 23.877,4.21289 7.9245,-0.0125 15.9829,-1.31315 23.875,-4.21289 2.2466,-0.82547 4.4236,-1.75352 6.5293,-2.77735 0.014,-0.007 0.027,-0.0147 0.041,-0.0215 1.9917,-0.97007 3.91,-2.03698 5.7695,-3.17188 0.3883,-0.23837 0.7627,-0.49997 1.1465,-0.74609 1.4535,-0.92724 2.872,-1.89353 4.2383,-2.91602 0.6513,-0.48983 1.2774,-1.01382 1.9121,-1.52734 1.054,-0.84908 2.0957,-1.7092 3.0918,-2.61328 0.7999,-0.72916 1.5666,-1.49873 2.3339,-2.26758 0.7682,-0.7667 1.5371,-1.53275 2.2657,-2.33203 0.9119,-1.0047 1.7807,-2.05555 2.6367,-3.11914 0.5036,-0.62303 1.0172,-1.23788 1.498,-1.87695 1.0267,-1.37123 1.9951,-2.79472 2.9258,-4.25391 0.245,-0.38209 0.5068,-0.75398 0.7442,-1.14063 1.1349,-1.85952 2.2018,-3.77782 3.1718,-5.76953 0.01,-0.0139 0.015,-0.0271 0.021,-0.041 1.0239,-2.10565 1.9539,-4.28267 2.7793,-6.5293 l 0.6465,-1.75976 c 4.8585,-14.41896 5.0332,-30.53425 -0.6465,-45.99219 z" />
    <g
       id="g33569"
       transform="matrix(0.83001832,0,0,0.83001832,87.030617,87.030617)">
      <path
         id="rect26258"
         style="fill:#16708d;fill-opacity:1"
         d="m 274.227,141.04172 c 59.4296,-22.26568 125.1988,7.65327 147.4645,67.08299 l 197.5822,527.36917 c 22.2657,59.42963 -7.6534,125.19872 -67.0831,147.4644 -59.4296,22.26568 -125.1987,-7.65322 -147.4644,-67.08285 L 207.1441,288.50625 C 184.8784,229.07653 214.7973,163.3074 274.227,141.04172 Z"
         inkscape:transform-center-x="98.791086"
         inkscape:transform-center-y="-263.68463" />
      <path
         id="path26943"
         style="fill:#f78772;fill-opacity:1"
         d="m 749.773,141.04172 c -59.4296,-22.26568 -125.1988,7.65327 -147.4645,67.08299 L 404.7263,735.49388 c -22.2657,59.42963 7.6534,125.19872 67.0831,147.4644 59.4296,22.26568 125.1987,-7.65322 147.4644,-67.08285 L 816.8559,288.50625 C 839.1216,229.07653 809.2027,163.3074 749.773,141.04172 Z"
         inkscape:transform-center-x="-98.791112"
         inkscape:transform-center-y="-263.68463" />
      <path
         id="path26945"
         style="fill:#f14321;fill-opacity:1"
         inkscape:transform-center-x="98.791086"
         inkscape:transform-center-y="-263.68463"
         d="M 511.999,449.16521 404.7255,735.49334 c -9.6398,25.72982 -9.4642,52.63769 -1.3808,76.69922 l 1.3125,3.5039 c 0.038,0.10133 0.083,0.19956 0.121,0.30078 1.3262,3.52761 2.819,6.94136 4.4415,10.25586 0.1936,0.39353 0.4034,0.77861 0.6015,1.16992 1.4541,2.88669 3.0221,5.68373 4.6875,8.39844 0.479,0.77649 0.9827,1.5374 1.4805,2.30274 1.4497,2.24085 2.9675,4.41951 4.5547,6.5332 0.8228,1.09035 1.676,2.15866 2.539,3.2207 1.3744,1.69902 2.7892,3.35534 4.25,4.96289 1.1919,1.30594 2.4198,2.5806 3.6758,3.83399 1.2544,1.25698 2.5309,2.4869 3.8379,3.67969 1.6037,1.45717 3.2565,2.86905 4.9512,4.24023 1.0664,0.86678 2.1394,1.72261 3.2344,2.54883 2.104,1.57973 4.2719,3.09154 6.5019,4.53515 0.7818,0.50884 1.56,1.02248 2.3535,1.51172 2.6922,1.6506 5.4669,3.20553 8.3281,4.64844 0.4141,0.20991 0.8218,0.43187 1.2383,0.63672 3.3075,1.61818 6.7129,3.10647 10.2324,4.42969 0.059,0.0222 0.1167,0.0482 0.1758,0.0703 3.6906,1.3807 7.4054,2.56118 11.1328,3.54492 0.01,0.002 0.017,0.006 0.025,0.008 3.4795,0.91746 6.9715,1.62435 10.4629,2.20508 0.3471,0.0567 0.6874,0.14181 1.0352,0.19531 2.8634,0.44934 5.7237,0.70084 8.582,0.92969 1.0201,0.0785 2.0286,0.22432 3.0527,0.27539 1.9562,0.10385 3.898,0.0478 5.8458,0.0508 1.9483,-0.003 3.8908,0.0531 5.8476,-0.0508 1.0242,-0.0511 2.0327,-0.19686 3.0527,-0.27539 2.8584,-0.22885 5.7186,-0.48035 8.5821,-0.92969 0.3478,-0.0535 0.688,-0.13862 1.0351,-0.19531 3.4915,-0.58073 6.9834,-1.28762 10.4629,-2.20508 0.01,-0.002 0.017,-0.006 0.025,-0.008 3.7274,-0.98374 7.4422,-2.16422 11.1328,-3.54492 0.059,-0.0221 0.1167,-0.0481 0.1758,-0.0703 3.5196,-1.32322 6.925,-2.81151 10.2324,-4.42969 0.4166,-0.20485 0.8242,-0.42681 1.2383,-0.63672 2.8612,-1.44291 5.636,-2.99784 8.3281,-4.64844 0.7935,-0.48924 1.5717,-1.00288 2.3535,-1.51172 2.2301,-1.44361 4.398,-2.95542 6.502,-4.53515 1.095,-0.82622 2.1679,-1.68205 3.2344,-2.54883 1.6947,-1.37118 3.3475,-2.78306 4.9511,-4.24023 1.3091,-1.19464 2.5876,-2.42652 3.8438,-3.68555 1.2495,-1.24712 2.4721,-2.51531 3.6582,-3.81445 1.4709,-1.61819 2.8959,-3.2852 4.2793,-4.9961 0.8556,-1.05342 1.6996,-2.11406 2.5156,-3.19531 1.589,-2.11572 3.1093,-4.29591 4.5606,-6.53906 0.4978,-0.76534 1.0014,-1.52625 1.4804,-2.30274 1.6654,-2.71471 3.2334,-5.51175 4.6875,-8.39844 0.1982,-0.39131 0.408,-0.77639 0.6016,-1.16992 1.6225,-3.3145 3.1152,-6.72825 4.4414,-10.25586 0.038,-0.10122 0.083,-0.19945 0.1211,-0.30078 l 1.3125,-3.5039 c 8.0834,-24.06153 8.259,-50.9694 -1.3809,-76.69922 z" />
    </g>
  </g>
</svg>
